<svg width="570" height="643" viewBox="0 0 570 643" fill="none" xmlns="http://www.w3.org/2000/svg">
<path d="M475.633 240.188L442.411 251.583L445.23 215.801L468.273 213.494C466.452 222.579 469.122 231.466 475.633 240.188Z" fill="#FFB8B8"/>
<path d="M565.145 621.594L553.571 624.962L532.554 584.289L549.637 579.317L565.145 621.594Z" fill="#FFB9B9"/>
<path d="M520.128 633.081C520.174 634.407 520.44 635.738 520.915 637.019C521.357 638.216 522.237 639.233 523.362 639.846C524.488 640.459 525.766 640.618 526.917 640.289L566.415 628.898C566.804 628.786 567.159 628.594 567.46 628.336C567.761 628.077 568.002 627.756 568.171 627.39C568.339 627.025 568.43 626.623 568.44 626.206C568.45 625.79 568.377 625.368 568.227 624.964L567.592 623.249C567.592 623.249 567.636 617.526 561.258 612.328C561.258 612.328 558.102 618.748 547.742 613.105L543.993 609.575L532.558 626.346L524.137 630.027C522.295 630.834 520.475 631.041 520.127 633.076L520.128 633.081Z" fill="#090814"/>
<path d="M444.543 632.557H430.073L423.19 588.895H444.545L444.543 632.557Z" fill="#FFB9B9"/>
<path d="M394.509 631.151C394.055 632.344 393.823 633.603 393.824 634.872C393.852 636.083 394.383 637.233 395.299 638.071C396.216 638.908 397.443 639.364 398.711 639.339H443.304C444.169 639.357 445.007 639.046 445.633 638.474C446.258 637.903 446.62 637.117 446.639 636.291V634.594C446.639 634.594 448.845 629.494 444.303 623.207C444.303 623.207 438.659 628.129 430.224 620.419L427.737 616.301L409.731 628.337L399.752 629.456C397.568 629.702 395.633 629.418 394.509 631.147V631.151Z" fill="#090814"/>
<path d="M416.029 359.348L405.481 380.483L423.406 599.887H445.822L455.037 455.966L535.486 599.887H562.982L521.462 497.228L492.999 363.374L416.029 359.348Z" fill="#090814"/>
<path d="M470.899 226.719L443.042 228.44L434.487 239.078L411.486 249.576L416.486 315.438L413.978 363.46L417.416 363.364C441.961 362.559 466.417 366.602 489.249 375.24C495.091 377.485 501.214 378.738 506.487 377.477C506.487 377.477 504.487 369.841 502.487 367.932C500.486 366.023 499.486 364.444 500.487 363.325C501.488 362.205 503.487 361.25 501.487 359.342C500.29 358.185 499.579 356.651 499.487 355.028L493.488 312.57L505.488 252.435L480.488 239.072L470.899 226.719Z" fill="#6C63FF"/>
<path d="M520.262 307.07L519.504 363.397L504.821 413.61L493.083 409.43L498.295 363.405L497.609 301.121L520.262 307.07Z" fill="#FFB9B9"/>
<path d="M504.772 421.705C506.149 414.485 503.625 407.999 499.133 407.219C494.642 406.438 489.885 411.659 488.507 418.879C487.13 426.099 489.655 432.584 494.146 433.365C498.637 434.146 503.395 428.925 504.772 421.705Z" fill="#FFB9B9"/>
<path d="M499.485 249.577C499.485 249.577 516.052 252.027 516.268 265.597C516.484 279.168 532.484 301.121 522.488 318.303L496.489 322.121L482.489 273.44" fill="#6C63FF"/>
<path d="M423.867 297.15L390.851 343.842L349.71 378.128L342.3 368.491L373.115 332.744L408.348 280.316L423.867 297.15Z" fill="#FFB9B9"/>
<path d="M345.015 384.878C350.32 379.564 351.941 372.82 348.636 369.813C345.33 366.806 338.351 368.676 333.046 373.989C327.741 379.303 326.119 386.047 329.424 389.054C332.73 392.061 339.71 390.191 345.015 384.878Z" fill="#FFB9B9"/>
<path d="M439.548 238.204C439.548 238.204 451.989 248.929 444.37 260.388C436.75 271.846 437.505 298.58 419.267 307.706L395.336 297.279C397.352 278.455 398.529 258.939 411.618 249.249L439.81 236.083" fill="#6C63FF"/>
<path d="M454.269 219.872C468.008 219.872 479.147 209.24 479.147 196.125C479.147 183.011 468.008 172.379 454.269 172.379C440.529 172.379 429.391 183.011 429.391 196.125C429.391 209.24 440.529 219.872 454.269 219.872Z" fill="#FFB9B9"/>
<path d="M472.539 215.637C473.91 215.86 475.514 212.69 477.056 209.601C480.274 203.137 482.32 199.028 482.476 193.22C482.608 188.269 481.168 189.568 479.766 178.562C479.303 174.933 472.806 174.94 471.485 173.216C469.251 170.304 472.678 169.104 467.12 167.354C456.712 164.078 452.004 169.167 445.394 169.606C445.227 169.617 441.95 172.677 440.119 172.835C436.913 173.112 432.287 172.635 430.213 167.972C428.273 163.612 426.989 176.354 428.722 177.931C430.24 179.453 431.604 181.108 432.797 182.874C432.87 183.151 426.757 176.692 425.742 179.353C425.008 181.269 427.319 191.126 429.185 191.496C430.745 191.806 434.562 186.896 433.701 188.909C431.705 193.579 443.713 196.559 458.089 187.188C458.599 186.856 458.117 187.386 459.892 191.499C462.135 196.687 462.641 196.968 462.602 198.396C462.517 201.489 460.084 202.4 460.799 204.432C461.155 205.273 461.789 205.98 462.604 206.447C463.419 206.914 464.371 207.114 465.316 207.019C467.222 206.644 467.549 204.392 468.929 204.432C470.111 204.466 471.513 206.166 471.639 207.881C471.902 211.495 466.298 212.488 465.316 217.365C464.761 220.118 471.283 215.435 472.541 215.644L472.539 215.637Z" fill="#090814"/>
<path d="M336.724 188.427C336.072 188.428 335.446 188.675 334.985 189.116C334.523 189.556 334.264 190.153 334.264 190.776V265.912C334.257 266.224 334.316 266.535 334.437 266.825C334.558 267.115 334.738 267.379 334.967 267.602C335.196 267.825 335.47 268.002 335.771 268.122C336.073 268.243 336.396 268.306 336.723 268.306C337.05 268.306 337.374 268.243 337.676 268.122C337.977 268.002 338.251 267.825 338.48 267.602C338.709 267.379 338.889 267.115 339.01 266.825C339.13 266.535 339.189 266.224 339.183 265.912V190.776C339.183 190.153 338.923 189.556 338.462 189.116C338.001 188.676 337.376 188.428 336.724 188.427Z" fill="#090814"/>
<path d="M2.46067 132.076C1.80832 132.076 1.18284 132.324 0.721558 132.764C0.260281 133.204 0.000928358 133.802 0.0004508 134.424V153.207C-0.00580934 153.52 0.0531854 153.83 0.173989 154.12C0.294792 154.41 0.474981 154.674 0.704012 154.897C0.933043 155.12 1.20632 155.297 1.50787 155.418C1.80942 155.539 2.13318 155.601 2.46022 155.601C2.78726 155.601 3.11103 155.539 3.41257 155.418C3.71412 155.297 3.9874 155.12 4.21643 154.897C4.44546 154.674 4.62564 154.41 4.74644 154.12C4.86725 153.83 4.92625 153.52 4.91999 153.207V134.423C4.91927 133.801 4.65994 133.204 4.19888 132.764C3.73783 132.324 3.1127 132.077 2.46067 132.076Z" fill="#090814"/>
<path d="M2.46067 188.427C1.80832 188.428 1.18284 188.675 0.721558 189.116C0.260281 189.556 0.000928358 190.153 0.0004508 190.776V227.17C-0.00580934 227.482 0.0531854 227.793 0.173989 228.083C0.294792 228.373 0.474981 228.637 0.704012 228.86C0.933043 229.083 1.20632 229.26 1.50787 229.38C1.80942 229.501 2.13318 229.564 2.46022 229.564C2.78726 229.564 3.11103 229.501 3.41257 229.38C3.71412 229.26 3.9874 229.083 4.21643 228.86C4.44546 228.637 4.62564 228.373 4.74644 228.083C4.86725 227.793 4.92625 227.482 4.91999 227.17V190.776C4.91951 190.153 4.66028 189.556 4.1992 189.116C3.73812 188.676 3.11286 188.428 2.46067 188.427Z" fill="#090814"/>
<path d="M2.46033 240.084C1.80861 240.085 1.18386 240.332 0.723023 240.772C0.262187 241.212 0.0028695 241.809 0.00191564 242.431V278.83C-0.0043445 279.142 0.0546502 279.453 0.175454 279.743C0.296257 280.033 0.476446 280.297 0.705477 280.52C0.934508 280.743 1.20779 280.92 1.50933 281.041C1.81088 281.161 2.13464 281.224 2.46168 281.224C2.78873 281.224 3.11249 281.161 3.41404 281.041C3.71558 280.92 3.98886 280.743 4.21789 280.52C4.44692 280.297 4.62711 280.033 4.74792 279.743C4.86872 279.453 4.92771 279.142 4.92145 278.83V242.431C4.9205 241.808 4.66081 241.211 4.19939 240.771C3.73797 240.331 3.11252 240.084 2.46033 240.084Z" fill="#090814"/>
<path d="M251.955 9.39164C254.672 9.39164 256.874 7.28925 256.874 4.69582C256.874 2.10239 254.672 0 251.955 0C249.238 0 247.035 2.10239 247.035 4.69582C247.035 7.28925 249.238 9.39164 251.955 9.39164Z" fill="#E6E6E6"/>
<path d="M265.485 9.39164C268.202 9.39164 270.405 7.28925 270.405 4.69582C270.405 2.10239 268.202 0 265.485 0C262.768 0 260.565 2.10239 260.565 4.69582C260.565 7.28925 262.768 9.39164 265.485 9.39164Z" fill="#E6E6E6"/>
<path d="M279.013 9.39164C281.73 9.39164 283.933 7.28925 283.933 4.69582C283.933 2.10239 281.73 0 279.013 0C276.296 0 274.094 2.10239 274.094 4.69582C274.094 7.28925 276.296 9.39164 279.013 9.39164Z" fill="#E6E6E6"/>
<path d="M280.578 422.114C280.578 368.59 233.181 339.141 179.041 325.195C109.624 307.314 58.7901 343.496 77.5028 422.114C89.9274 474.311 152.991 552.209 179.041 504.81C208.849 450.567 280.578 475.642 280.578 422.114Z" fill="#F2F2F2"/>
<path d="M144.143 412.56L131.877 407.014C136.908 413.716 141.243 424.183 143.564 432.511C147.494 424.753 153.829 415.26 160.099 409.59L147.135 412.773C155.123 375.403 185.17 348.579 219.576 348.579L220.063 347.229C184.124 347.225 152.3 373.681 144.143 412.56Z" fill="#090814"/>
<path d="M200.599 469.499H123.094C121.513 469.499 119.996 468.9 118.878 467.833C117.76 466.765 117.132 465.318 117.132 463.809C117.132 462.3 117.76 460.852 118.878 459.785C119.996 458.718 121.513 458.118 123.094 458.118H200.596C202.177 458.118 203.693 458.718 204.811 459.785C205.929 460.852 206.558 462.3 206.558 463.809C206.558 465.318 205.929 466.765 204.811 467.833C203.693 468.9 202.177 469.499 200.596 469.499H200.599Z" fill="#6C63FF"/>
<path d="M273.048 174.574V325.374C273.04 331.786 270.368 337.933 265.618 342.467C260.868 347.001 254.428 349.551 247.711 349.558H89.7256C83.0082 349.551 76.5681 347.001 71.8181 342.467C67.0682 337.933 64.3963 331.786 64.3887 325.374V174.574C64.3963 168.162 67.0682 162.015 71.8181 157.481C76.5681 152.947 83.0082 150.397 89.7256 150.389H247.711C254.428 150.397 260.868 152.947 265.618 157.481C270.368 162.015 273.04 168.162 273.048 174.574ZM247.711 346.714C250.647 346.714 253.554 346.162 256.266 345.089C258.979 344.017 261.444 342.445 263.52 340.463C265.596 338.481 267.243 336.129 268.366 333.54C269.49 330.95 270.068 328.175 270.068 325.373V249.347C270.068 236.725 267.464 224.227 262.403 212.566C257.343 200.905 249.926 190.309 240.576 181.385C231.226 172.46 220.126 165.38 207.909 160.55C195.692 155.72 182.599 153.234 169.376 153.234H89.7256C83.796 153.234 78.1093 155.483 73.9165 159.485C69.7237 163.487 67.3682 168.915 67.3682 174.575V325.374C67.3682 331.034 69.7237 336.462 73.9165 340.464C78.1093 344.466 83.796 346.714 89.7256 346.714H247.711V346.714Z" fill="#090814"/>
<path d="M189.749 211.979H138.746C138.436 211.985 138.128 211.931 137.84 211.822C137.552 211.713 137.289 211.55 137.068 211.343C136.846 211.135 136.67 210.888 136.55 210.615C136.43 210.342 136.368 210.049 136.368 209.753C136.368 209.457 136.43 209.164 136.55 208.891C136.67 208.618 136.846 208.371 137.068 208.163C137.289 207.956 137.552 207.793 137.84 207.684C138.128 207.575 138.436 207.521 138.746 207.527H189.749C190.36 207.539 190.941 207.778 191.369 208.194C191.796 208.611 192.035 209.17 192.035 209.753C192.035 210.336 191.796 210.895 191.369 211.312C190.941 211.728 190.36 211.967 189.749 211.979Z" fill="#6C63FF"/>
<path d="M189.749 259.443H138.746C138.436 259.449 138.128 259.395 137.84 259.286C137.552 259.177 137.289 259.014 137.068 258.807C136.846 258.599 136.67 258.352 136.55 258.079C136.43 257.806 136.368 257.513 136.368 257.217C136.368 256.921 136.43 256.628 136.55 256.355C136.67 256.082 136.846 255.835 137.068 255.628C137.289 255.42 137.552 255.257 137.84 255.148C138.128 255.039 138.436 254.986 138.746 254.991H189.749C190.36 255.003 190.941 255.242 191.369 255.659C191.796 256.075 192.035 256.634 192.035 257.217C192.035 257.8 191.796 258.36 191.369 258.776C190.941 259.192 190.36 259.431 189.749 259.443Z" fill="#6C63FF"/>
<path d="M164.412 324.884H113.409C113.099 324.89 112.791 324.837 112.503 324.727C112.215 324.618 111.952 324.455 111.731 324.248C111.509 324.041 111.333 323.793 111.213 323.52C111.093 323.247 111.031 322.954 111.031 322.658C111.031 322.362 111.093 322.069 111.213 321.796C111.333 321.523 111.509 321.276 111.731 321.069C111.952 320.862 112.215 320.699 112.503 320.589C112.791 320.48 113.099 320.427 113.409 320.433H164.412C165.023 320.444 165.604 320.684 166.032 321.1C166.459 321.516 166.699 322.076 166.699 322.658C166.699 323.241 166.459 323.801 166.032 324.217C165.604 324.633 165.023 324.873 164.412 324.884Z" fill="#6C63FF"/>
<path d="M217.118 235.725H111.377C111.067 235.731 110.759 235.678 110.471 235.569C110.182 235.46 109.92 235.296 109.698 235.089C109.477 234.882 109.301 234.635 109.181 234.362C109.061 234.089 108.999 233.796 108.999 233.5C108.999 233.204 109.061 232.911 109.181 232.638C109.301 232.365 109.477 232.117 109.698 231.91C109.92 231.703 110.182 231.54 110.471 231.431C110.759 231.321 111.067 231.268 111.377 231.274H217.118C217.728 231.285 218.31 231.525 218.737 231.941C219.165 232.357 219.404 232.917 219.404 233.5C219.404 234.083 219.165 234.642 218.737 235.058C218.31 235.474 217.728 235.714 217.118 235.725Z" fill="#6C63FF"/>
</svg>
