<svg width="345" height="52" viewBox="0 0 345 52" fill="none" xmlns="http://www.w3.org/2000/svg">
<mask id="mask0_1_38" style="mask-type:alpha" maskUnits="userSpaceOnUse" x="0" y="0" width="345" height="52">
<g clip-path="url(#clip0_1_38)">
<mask id="mask1_1_38" style="mask-type:luminance" maskUnits="userSpaceOnUse" x="0" y="0" width="345" height="52">
<path d="M345 0H0V52H345V0Z" fill="white"/>
</mask>
<g mask="url(#mask1_1_38)">
<path d="M105.264 52L113.059 4.22968H130.666C134.274 4.22968 137.193 4.91389 139.424 6.28231C141.656 7.63518 143.207 9.50896 144.079 11.9037C144.95 14.2829 145.133 16.9964 144.629 20.0443C144.14 23.1076 143.062 25.829 141.396 28.2082C139.745 30.5873 137.568 32.4611 134.862 33.8296C132.157 35.1825 128.993 35.8589 125.37 35.8589H113.701L114.87 28.7446H125.394C127.503 28.7446 129.291 28.3714 130.758 27.625C132.241 26.8786 133.41 25.8523 134.266 24.5461C135.122 23.2398 135.687 21.7392 135.962 20.0443C136.223 18.3493 136.138 16.8565 135.71 15.5658C135.282 14.2751 134.449 13.2721 133.212 12.5568C131.988 11.826 130.315 11.4605 128.191 11.4605H120.396L113.769 52H105.264ZM146.749 52L154.545 4.22968H185.083L183.891 11.4839H161.858L159.749 24.4527H180.2L179.007 31.7069H158.557L156.448 44.7458H178.664L177.471 52H146.749ZM200.639 4.22968L208.159 21.7237H208.525L221.731 4.22968H231.658L213.34 28.1148L224.093 52H214.394L206.783 34.6226H206.416L193.119 52H183.146L201.923 28.1148L191.124 4.22968H200.639ZM245.214 4.22968L252.734 21.7237H253.1L266.306 4.22968H276.233L257.915 28.1148L268.668 52H258.97L251.358 34.6226H250.991L237.694 52H227.721L246.497 28.1148L235.699 4.22968H245.214ZM275.116 52L282.911 4.22968H313.449L312.257 11.4839H290.224L288.115 24.4527H308.566L307.373 31.7069H286.923L284.814 44.7458H307.03L305.837 52H275.116ZM314.332 52L322.127 4.22968H330.632L324.03 44.7458H344.709L343.517 52H314.332Z" fill="url(#paint0_linear_1_38)"/>
<path d="M104.912 0H94.8246V10.2632H104.912V0Z" fill="#7CCFE4"/>
<path d="M73.3041 0H63.2164V10.2632H73.3041V0Z" fill="#77B3E4"/>
<path d="M41.6959 1.36841H31.6082V11.6316H41.6959V1.36841Z" fill="#6D83E4"/>
<path d="M10.0877 41.7368H0V52H10.0877V41.7368Z" fill="#6D7BE4"/>
<path d="M59.8538 19.8421H49.7661V30.1053H59.8538V19.8421Z" fill="#77B3E4"/>
<path d="M27.5731 19.8421H17.4854V30.1053H27.5731V19.8421Z" fill="#6D7BE4"/>
<path d="M92.1345 19.8421H82.0468V30.1053H92.1345V19.8421Z" fill="#7CCFE4"/>
<path d="M73.3041 41.7368H63.2164V52H73.3041V41.7368Z" fill="#7CCFE4"/>
<path d="M41.6959 41.7368H31.6082V52H41.6959V41.7368Z" fill="#77B3E4"/>
</g>
</g>
</mask>
<g mask="url(#mask0_1_38)">
<rect y="-50" width="345" height="204" fill="url(#paint1_linear_1_38)"/>
</g>
<defs>
<linearGradient id="paint0_linear_1_38" x1="103.567" y1="28.0526" x2="349.708" y2="28.0526" gradientUnits="userSpaceOnUse">
<stop stop-color="#6D7BE4"/>
<stop offset="1" stop-color="#77B3E4"/>
</linearGradient>
<linearGradient id="paint1_linear_1_38" x1="345" y1="52" x2="0" y2="52" gradientUnits="userSpaceOnUse">
<stop stop-color="#163DB3"/>
<stop offset="1" stop-color="#FF00D0"/>
</linearGradient>
<clipPath id="clip0_1_38">
<rect width="345" height="52" fill="white"/>
</clipPath>
</defs>
</svg>
