<svg width="389" height="1175" viewBox="0 0 389 1175" fill="none" xmlns="http://www.w3.org/2000/svg">
<path d="M212.821 110.524L233.227 168.336L199.218 236.352L141.402 137.73L212.821 110.524Z" fill="#ED9DA0"/>
<path d="M384.56 809.39C373.372 825.068 287.094 915.8 229.381 976.063C213.364 992.76 199.556 1007.15 190.171 1016.91C181.938 1025.44 177.113 1030.44 177.113 1030.44L151.034 975.892L139.709 952.222L139.88 952.011L146.987 942.934L214.765 856.213L285.937 765.17L228.123 649.544L299.54 639.342L347.015 642.13L357.359 642.743C357.359 642.743 401.564 785.585 384.56 809.39Z" fill="#2F2E41"/>
<path d="M183.914 1088.26C179.494 1092.68 171.808 1087.03 163.476 1077.38C146.234 1057.38 126.102 1020.24 126.102 1020.24L102.297 969.23C104.847 953.993 128.177 952.056 139.872 952.022C143.851 952.022 146.504 952.233 146.504 952.233L148.476 955.156L190.169 1016.91C190.169 1016.91 197.517 1074.65 183.914 1088.26Z" fill="#090814"/>
<path opacity="0.2" d="M190.171 1016.91C190.171 1016.91 197.517 1074.65 183.914 1088.26C179.493 1092.68 171.808 1087.03 163.476 1077.37L151.021 975.894L148.471 955.15L146.975 942.94L214.755 856.219L229.379 976.063C213.363 992.76 199.556 1007.15 190.171 1016.91Z" fill="black"/>
<path opacity="0.2" d="M237.272 667.837L228.123 649.54L299.54 639.34L347.017 642.131L347.152 642.741L237.272 667.837Z" fill="black"/>
<path d="M146.504 493.114H122.697L129.5 717.567L177.11 1105.26H255.329L221.322 826.392L238.327 669.957L357.354 642.749L323.349 486.312L146.504 493.114Z" fill="#2F2E41"/>
<path d="M183.914 1095.06C183.914 1095.06 177.113 1142.67 180.513 1146.07C183.914 1149.47 187.315 1152.87 187.315 1159.67C187.315 1166.47 228.125 1183.47 248.532 1169.87C268.938 1156.27 255.333 1135.86 255.333 1135.86L234.929 1095.06H183.914Z" fill="#090814"/>
<path d="M170.311 153.034C202.241 153.034 228.125 127.15 228.125 95.2199C228.125 63.29 202.241 37.4057 170.311 37.4057C138.381 37.4057 112.497 63.29 112.497 95.2199C112.497 127.15 138.381 153.034 170.311 153.034Z" fill="#ED9DA0"/>
<path d="M204.318 187.041L159.836 169.174L132.901 503.314L319.944 516.919L255.329 173.438L226.424 146.298L204.318 187.041Z" fill="#E6E6E6"/>
<path d="M153.922 159.078L119.303 187.037L54.687 221.044L78.4919 435.304L81.8927 557.738C81.8927 557.738 37.6834 666.563 71.6905 693.77C105.698 720.978 143.108 710.774 136.306 652.96C129.505 595.146 115.902 554.337 180.518 493.122C245.133 431.907 188.543 144.723 153.922 159.078Z" fill="#2F2E41"/>
<path d="M222.909 139.113L265.533 166.641L323.347 197.25L367.556 686.965L268.933 717.573C268.933 717.573 214.294 152.392 222.909 139.113Z" fill="#2F2E41"/>
<path d="M122.699 544.128C122.699 544.128 173.712 622.347 136.302 622.347C98.8921 622.347 88.6899 557.731 88.6899 557.731L122.699 544.128Z" fill="#ED9DA0"/>
<path d="M173.712 10.2021L156.708 0L160.109 6.80142L146.506 3.40069L149.906 6.80142L132.903 3.40069L139.704 10.2021C139.704 10.2021 112.499 10.2021 109.096 37.4078L92.0923 40.8085L98.8938 51.0106V61.2128L105.695 68.0142V78.2163L112.497 95.2199L119.298 71.4149C119.298 71.4149 149.907 78.2163 163.507 51.0106C163.507 51.0106 166.908 61.2128 183.911 57.8121L211.123 105.424C211.123 105.424 214.524 84.3148 226.428 81.2666C238.331 78.2185 231.53 51.0106 231.53 51.0106C231.53 51.0106 221.328 40.8085 221.328 34.0071C221.328 27.2057 211.126 20.4043 204.324 20.4043C197.523 20.4043 180.519 6.80142 180.519 6.80142L173.712 10.2021Z" fill="#090814"/>
<path d="M81.8967 224.453L66.0648 215.066L54.689 221.052C54.689 221.052 41.0862 227.854 37.6855 251.661C34.2847 275.468 0.277622 421.701 0.277622 421.701C0.277622 421.701 -3.12315 445.506 13.8804 486.316C30.884 527.127 95.4996 598.542 95.4996 598.542L156.717 547.529L64.8911 435.304L88.6961 343.478L81.8967 224.453Z" fill="#2F2E41"/>
<path d="M333.547 544.128C333.547 544.128 282.534 622.347 319.944 622.347C357.354 622.347 367.556 557.731 367.556 557.731L333.547 544.128Z" fill="#ED9DA0"/>
<path d="M296.14 197.243H323.345L367.557 363.882L381.162 571.33L316.546 547.525V397.892L296.14 197.243Z" fill="#2F2E41"/>
</svg>
